# xmcd CD database file
#
# Track frame offsets:
#	151
#	44706
#	106161
#	166651
#	219583
#
# Disc length: 3692 seconds
#
# Revision: 1
# Processed by: cddbd v1.5.1PL0 Copyright (c) Steve Scherf et al.
# Submitted via: CDex 1.51
#
DISCID=3d0e6a05
DTITLE=Woody Shaw - Live Volume Four
DYEAR=2005
DGENRE=Jazz
TTITLE0=When Lights Are Low
TTITLE1=The Time Is Right
TTITLE2=It Could Happen To You
TTITLE3=Opec
TTITLE4=Bye Bye Blackbrid
EXTD=YEAR: 2005
EXTT0=
EXTT1=
EXTT2=
EXTT3=
EXTT4=
PLAYORDER=
